<?xml version="1.0" encoding="utf-8"?>

<!-- Uploaded to: SVG Repo, www.svgrepo.com, Generator: SVG Repo Mixer Tools -->
<svg viewBox="0 -6.62 126.238 126.238" xmlns="http://www.w3.org/2000/svg">
  <g id="Group_2" data-name="Group 2" transform="translate(-47.311 -177.015)">
    <path id="Path_6" data-name="Path 6" d="M131.123,229.824a4.644,4.644,0,1,0-4.645-4.644A4.649,4.649,0,0,0,131.123,229.824Z" fill="#22313f"/>
    <path id="Path_7" data-name="Path 7" d="M90.1,229.824a4.644,4.644,0,1,0-4.644-4.644A4.649,4.649,0,0,0,90.1,229.824Z" fill="#22313f"/>
    <path id="Path_8" data-name="Path 8" d="M110.537,244.118a4.65,4.65,0,0,0,4.644-4.646V222.321a4.645,4.645,0,0,0-9.289,0v17.151A4.651,4.651,0,0,0,110.537,244.118Z" fill="#22313f"/>
    <path id="Path_9" data-name="Path 9" d="M168.615,215.995h-4.067c-.067,0-.13.017-.2.02a56.43,56.43,0,0,0-107.357.049,4.956,4.956,0,0,0-.682-.069H52.245a4.939,4.939,0,0,0-4.934,4.934v23.235a4.94,4.94,0,0,0,4.934,4.934h4.068c.04,0,.077-.011.117-.012a56.42,56.42,0,0,0,108.5.012h3.684a4.94,4.94,0,0,0,4.934-4.934V220.929A4.939,4.939,0,0,0,168.615,215.995Zm-57.93,66.3a48.778,48.778,0,1,1,48.775-48.775A48.833,48.833,0,0,1,110.685,282.294Z" fill="#22313f"/>
    <path id="Path_10" data-name="Path 10" d="M140.921,248.246c-.118.069-12.005,7.007-29.722,7.007a71.446,71.446,0,0,1-30.894-7.185,3.854,3.854,0,0,0-1.669-.378,3.89,3.89,0,0,0-1.673,7.4,79.552,79.552,0,0,0,34.386,8.03c19.7,0,33.019-7.873,33.577-8.209a3.888,3.888,0,0,0-4-6.666Z" fill="#22313f"/>
  </g>
</svg>