<?xml version="1.0" encoding="utf-8"?>

<!-- Uploaded to: SVG Repo, www.svgrepo.com, Generator: SVG Repo Mixer Tools -->
<svg viewBox="0 -6.62 126.238 126.238" xmlns="http://www.w3.org/2000/svg">
  <g id="Group_8" data-name="Group 8" transform="translate(-479.702 -321.104)">
    <path id="Path_36" data-name="Path 36" d="M542.947,391.37c-19.681,0-33.017,7.872-33.578,8.208a3.89,3.89,0,0,0,4.008,6.667c.117-.07,11.994-7.008,29.721-7.008a71.44,71.44,0,0,1,30.895,7.186,3.865,3.865,0,0,0,1.667.377,3.909,3.909,0,0,0,3.513-2.218,3.89,3.89,0,0,0-1.84-5.183A79.551,79.551,0,0,0,542.947,391.37Z" fill="#22313f"/>
    <path id="Path_37" data-name="Path 37" d="M542.928,385.951a4.65,4.65,0,0,0,4.644-4.645V364.154a4.645,4.645,0,0,0-9.289,0v17.152A4.651,4.651,0,0,0,542.928,385.951Z" fill="#22313f"/>
    <path id="Path_38" data-name="Path 38" d="M601.007,360.084h-4.069c-.067,0-.129.017-.2.02a56.43,56.43,0,0,0-107.357.049,4.8,4.8,0,0,0-.682-.069h-4.068a4.94,4.94,0,0,0-4.934,4.935v23.234a4.939,4.939,0,0,0,4.934,4.934H488.7c.04,0,.077-.011.117-.012a56.42,56.42,0,0,0,108.5.012h3.685a4.939,4.939,0,0,0,4.933-4.934V365.019A4.94,4.94,0,0,0,601.007,360.084Zm-9.156,17.523a48.778,48.778,0,1,1-48.775-48.78A48.831,48.831,0,0,1,591.851,377.607Z" fill="#22313f"/>
    <path id="Path_39" data-name="Path 39" d="M577.272,358.79a3.5,3.5,0,0,0-4.925-.484l-4.919,4.037-4.919-4.037a3.5,3.5,0,0,0-4.442,5.41l3.844,3.155-3.844,3.154a3.5,3.5,0,0,0,4.442,5.411l4.919-4.038,4.919,4.038a3.5,3.5,0,0,0,4.441-5.411l-3.844-3.154,3.844-3.155A3.5,3.5,0,0,0,577.272,358.79Z" fill="#22313f"/>
    <path id="Path_40" data-name="Path 40" d="M509.506,374.951a3.5,3.5,0,0,0,4.926.485l4.919-4.038,4.919,4.038a3.5,3.5,0,0,0,4.442-5.411l-3.844-3.154,3.844-3.155a3.5,3.5,0,0,0-4.442-5.41l-4.919,4.037-4.919-4.037a3.5,3.5,0,0,0-4.442,5.41l3.844,3.155-3.844,3.154A3.5,3.5,0,0,0,509.506,374.951Z" fill="#22313f"/>
  </g>
</svg>